<svg xmlns="http://www.w3.org/2000/svg" xmlns:xlink="http://www.w3.org/1999/xlink" version="1.1" x="0px" y="0px" viewBox="0 0 100 125" enable-background="new 0 0 100 100" xml:space="preserve"><path d="M25.24,49.431c-0.803,0-1.322,0.077-1.629,0.155v11.405c0.307,0.078,0.803,0.078,1.252,0.078  c3.258,0.026,5.383-1.939,5.383-6.104C30.27,51.345,28.334,49.431,25.24,49.431z"/><path d="M47.192,55.199c0-3.129-1.368-5.819-3.848-5.819c-2.432,0-3.848,2.535-3.848,5.922c0,3.414,1.463,5.819,3.871,5.819  C45.8,61.121,47.192,58.586,47.192,55.199z"/><path d="M64.39,7.821C62.209,5.64,60.663,5,57.58,5H18.484C14.188,5,12.5,6.688,12.5,10.984v78.032c0,4.296,1.688,5.984,5.984,5.984  h63.031c4.297,0,5.984-1.688,5.984-5.984V34.919c0-3.084-0.641-4.629-2.821-6.81L64.39,7.821z M82.266,88.171  c0,1.146-0.45,1.595-1.596,1.595H19.33c-1.146,0-1.596-0.45-1.596-1.595V68.813h64.531V88.171z M20,63.888V46.768  c1.322-0.233,3.045-0.362,4.863-0.362c3.021,0,4.981,0.595,6.516,1.862c1.652,1.345,2.691,3.491,2.691,6.569  c0,3.336-1.109,5.638-2.645,7.061c-1.677,1.526-4.226,2.25-7.342,2.25C22.219,64.147,20.897,64.018,20,63.888z M35.695,55.379  c0-5.224,3.046-9.129,7.744-9.129c4.887,0,7.554,4.009,7.554,8.819c0,5.715-3.164,9.181-7.813,9.181  C38.458,64.25,35.695,60.345,35.695,55.379z M61.495,60.965c1.086,0,2.29-0.258,2.999-0.569l0.542,3.078  c-0.661,0.362-2.148,0.75-4.084,0.75c-5.5,0-8.334-3.75-8.334-8.716c0-5.948,3.872-9.259,8.688-9.259  c1.865,0,3.281,0.414,3.919,0.776l-0.73,3.13c-0.733-0.336-1.748-0.647-3.022-0.647c-2.856,0-5.075,1.888-5.075,5.768  C56.396,58.768,58.284,60.965,61.495,60.965z M66.451,46.535h4.13l1.394,3.181c0.471,1.061,0.826,1.915,1.203,2.897h0.047  c0.378-1.112,0.685-1.888,1.087-2.897l1.345-3.181h4.108l-4.485,8.509L80,63.966h-4.154l-1.439-3.155  c-0.59-1.215-0.969-2.12-1.417-3.129h-0.047c-0.331,1.009-0.732,1.914-1.229,3.129l-1.321,3.155h-4.107l4.603-8.819L66.451,46.535z   M82.266,41.687H17.734V11.829c0-1.146,0.449-1.595,1.596-1.595h39.846c0.572,0,0.798,0.225,0.798,0.797v15.511  c0,4.296,1.688,5.984,5.983,5.984h15.511c0.573,0,0.798,0.226,0.798,0.798V41.687z"/></svg>