<svg xmlns="http://www.w3.org/2000/svg" xmlns:xlink="http://www.w3.org/1999/xlink" version="1.1" x="0px" y="0px" viewBox="0 0 100 125" enable-background="new 0 0 100 100" xml:space="preserve"><path d="M48.912,49.32c-0.893,0-1.47,0.078-1.811,0.158V61.05c0.341,0.078,0.892,0.078,1.391,0.078  c3.621,0.026,5.982-1.969,5.982-6.194C54.5,51.262,52.348,49.32,48.912,49.32z"/><path d="M36.578,51.865c0-1.627-1.127-2.598-3.122-2.598c-0.813,0-1.365,0.079-1.653,0.158v5.222c0.34,0.078,0.76,0.104,1.338,0.104  C35.266,54.751,36.578,53.675,36.578,51.865z"/><path d="M64.39,7.821C62.209,5.64,60.663,5,57.58,5H18.484C14.188,5,12.5,6.688,12.5,10.984v78.032c0,4.296,1.688,5.984,5.984,5.984  h63.032c4.297,0,5.984-1.688,5.984-5.984V34.919c0-3.084-0.641-4.629-2.821-6.81L64.39,7.821z M82.266,88.171  c0,1.146-0.45,1.595-1.596,1.595H19.33c-1.146,0-1.596-0.45-1.596-1.595V68.814h64.532V88.171z M27.841,64.067v-17.45  c1.233-0.21,2.965-0.367,5.405-0.367c2.466,0,4.224,0.473,5.405,1.416c1.128,0.892,1.889,2.363,1.889,4.094  c0,1.732-0.577,3.202-1.626,4.198c-1.364,1.286-3.385,1.863-5.747,1.863c-0.524,0-0.997-0.027-1.364-0.079v6.325H27.841z   M43.086,63.987v-17.37c1.469-0.236,3.384-0.367,5.405-0.367c3.358,0,5.536,0.604,7.242,1.889c1.837,1.365,2.991,3.542,2.991,6.666  c0,3.384-1.233,5.72-2.939,7.163c-1.862,1.548-4.696,2.283-8.16,2.283C45.553,64.25,44.083,64.119,43.086,63.987z M71.715,53.701  v3.253h-6.352v7.113h-4.015V46.381h10.811v3.28h-6.796v4.041H71.715z M82.266,41.687H17.734V11.829c0-1.146,0.45-1.595,1.596-1.595  h39.846c0.572,0,0.798,0.225,0.798,0.797v15.511c0,4.296,1.688,5.984,5.983,5.984h15.511c0.573,0,0.798,0.226,0.798,0.798V41.687z"/></svg>